<?xml version="1.0" encoding="UTF-8" standalone="no"?>
<!DOCTYPE svg PUBLIC "-//W3C//DTD SVG 1.1//EN" "http://www.w3.org/Graphics/SVG/1.1/DTD/svg11.dtd">
<svg width="100%" height="100%" viewBox="0 0 36 48" version="1.1" xmlns="http://www.w3.org/2000/svg" xmlns:xlink="http://www.w3.org/1999/xlink" xml:space="preserve" xmlns:serif="http://www.serif.com/" style="fill-rule:evenodd;clip-rule:evenodd;stroke-linejoin:round;stroke-miterlimit:2;">
    <g transform="matrix(1.53705,0,0,1.58609,-38.1024,-33.894)">
        <g id="Icon-Architecture-48-Arch_Amazon-Kinesis-Data-Streams_48" serif:id="Icon-Architecture/48/Arch_Amazon-Kinesis-Data-Streams_48">
            <g id="Icon-Service-48-Amazon-Kinesis-Data-Streams" serif:id="Icon-Service/48/Amazon-Kinesis-Data-Streams">
                <path id="Amazon-Kinesis-Data-Streams_Icon_48_Squid" d="M36,41.001L37,41.001L37,40.001L36,40.001L36,41.001ZM39,39.001L39,42.001C39,42.553 38.553,43.001 38,43.001L35,43.001C34.448,43.001 34,42.553 34,42.001L34,39.001C34,38.449 34.448,38.001 35,38.001L38,38.001C38.553,38.001 39,38.449 39,39.001ZM34,36.001L37,36.001L37,34.001L34,34.001L34,36.001ZM40,33.001L41,33.001L41,32.001L40,32.001L40,33.001ZM44,36.501C44,35.145 43.633,33.874 43,32.775L43,34.001C43,34.553 42.553,35.001 42,35.001L39,35.001C38.448,35.001 38,34.553 38,34.001L38,31.001C38,30.449 38.448,30.001 39,30.001L40.226,30.001C39.127,29.369 37.857,29.001 36.5,29.001C35.144,29.001 33.873,29.369 32.775,30.001L37,30.001L37,32.001L30.514,32.001C30.06,32.604 29.696,33.276 29.438,34.001L33,34.001L33,36.001L29.026,36.001C29.015,36.167 29,36.332 29,36.501C29,37.015 29.053,37.516 29.152,38.001L32,38.001L32,40.001L29.872,40.001C30.059,40.353 30.276,40.685 30.514,41.001L32,41.001L32,42.487C33.255,43.433 34.811,44.001 36.5,44.001C37.857,44.001 39.127,43.633 40.226,43.001L40,43.001L40,41.001L42.487,41.001C42.725,40.685 42.942,40.353 43.128,40.001L40,40.001L40,38.001L43.849,38.001C43.948,37.516 44,37.015 44,36.501ZM46,36.501C46,41.739 41.739,46.001 36.5,46.001C31.262,46.001 27,41.739 27,36.501C27,31.263 31.262,27.001 36.5,27.001C41.739,27.001 46,31.263 46,36.501Z" style="fill:white;"/>
            </g>
        </g>
    </g>
</svg>
